<svg width="14" height="12" viewBox="0 0 14 12" fill="none" xmlns="http://www.w3.org/2000/svg">
<path fill-rule="evenodd" clip-rule="evenodd" d="M11.6566 8.96154L13.9841 2.23151C14.007 2.15539 14.0052 2.07483 13.9789 1.99963C13.9526 1.92443 13.903 1.85782 13.836 1.80791C13.769 1.75801 13.6876 1.72695 13.6016 1.71851C13.5156 1.71008 13.4289 1.72463 13.3518 1.76041L9.58119 3.74754L7.38943 0.286885C7.35134 0.223339 7.29522 0.17032 7.22697 0.133387C7.15872 0.0964527 7.08084 0.0769653 7.00151 0.0769653C6.92217 0.0769653 6.84429 0.0964527 6.77604 0.133387C6.70779 0.17032 6.65168 0.223339 6.61359 0.286885L4.43735 3.74754L0.66675 1.76041C0.589292 1.72019 0.500418 1.70207 0.411581 1.70839C0.322745 1.71471 0.238016 1.74518 0.168314 1.79587C0.0986122 1.84655 0.0471313 1.91514 0.0205049 1.99278C-0.00612156 2.07043 -0.0066732 2.15358 0.0189215 2.23151L2.34645 8.96154H11.6566ZM11.3838 10.4423H2.47473V11.9231H11.3838V10.4423Z" fill="#A379FF"/>
</svg>
